<svg width="24" height="24" viewBox="0 0 24 24" fill="none" xmlns="http://www.w3.org/2000/svg">
<rect x="2" y="2.00073" width="20" height="20" rx="4" fill="white"/>
<path d="M18.1432 8.50574C17.343 8.50574 16.6046 8.24064 16.0117 7.79342C15.3317 7.28074 14.8431 6.5287 14.6706 5.66191C14.6278 5.44774 14.6048 5.22673 14.6026 5.00024H12.3167V11.2466L12.3139 14.668C12.3139 15.5827 11.7183 16.3583 10.8926 16.6311C10.6529 16.7103 10.3941 16.7478 10.1246 16.733C9.78066 16.7141 9.45831 16.6103 9.17815 16.4427C8.58194 16.0861 8.17771 15.4392 8.16676 14.6993C8.1495 13.5427 9.08449 12.5998 10.2402 12.5998C10.4683 12.5998 10.6874 12.637 10.8926 12.7047V10.9974V10.3837C10.6762 10.3516 10.456 10.3349 10.2334 10.3349C8.96837 10.3349 7.78526 10.8607 6.93956 11.808C6.30035 12.5239 5.91694 13.4373 5.85778 14.395C5.78028 15.6531 6.24065 16.8491 7.13345 17.7315C7.26464 17.861 7.40239 17.9813 7.54645 18.0922C8.31191 18.6813 9.24771 19.0006 10.2334 19.0006C10.456 19.0006 10.6762 18.9842 10.8926 18.9521C11.8133 18.8158 12.6628 18.3943 13.3333 17.7315C14.1571 16.9173 14.6122 15.8363 14.6172 14.6858L14.6054 9.57657C14.9984 9.87974 15.4281 10.1306 15.8893 10.3253C16.6065 10.6279 17.3671 10.7813 18.1498 10.781V9.12112V8.5052C18.1503 8.50574 18.1437 8.50574 18.1432 8.50574Z" fill="#FBB03B"/>
</svg>
