<svg width="24" height="25" viewBox="0 0 24 25" fill="none" xmlns="http://www.w3.org/2000/svg">
<path d="M0.968446 2.41015H2.64055L5.14707 13.7058C4.52265 14.0035 3.99764 14.4751 3.63513 15.0638C3.27263 15.6524 3.08806 16.3332 3.10363 17.0241C3.06138 17.9255 3.37781 18.807 3.98386 19.4763C4.58992 20.1456 5.4364 20.5483 6.33862 20.5966H19.6128C19.747 20.601 19.8808 20.5784 20.0061 20.5302C20.1314 20.4819 20.2457 20.409 20.3422 20.3157C20.4388 20.2224 20.5155 20.1107 20.5679 19.9872C20.6204 19.8637 20.6474 19.731 20.6474 19.5968C20.6474 19.4627 20.6204 19.3299 20.5679 19.2064C20.5155 19.0829 20.4388 18.9712 20.3422 18.8779C20.2457 18.7846 20.1314 18.7117 20.0061 18.6635C19.8808 18.6152 19.747 18.5926 19.6128 18.5971H6.33753C5.96901 18.5431 5.63525 18.35 5.40504 18.0575C5.17482 17.7651 5.06568 17.3956 5.1001 17.0252C5.06526 16.6554 5.17351 16.2863 5.40263 15.9938C5.63175 15.7012 5.96434 15.5074 6.33207 15.4522H19.6128C19.8189 15.4523 20.02 15.3888 20.1887 15.2705C20.3574 15.1522 20.4854 14.9848 20.5553 14.7911L23.941 5.41976C23.9953 5.26876 24.0125 5.10692 23.991 4.94791C23.9695 4.7889 23.9101 4.63738 23.8177 4.50614C23.7253 4.3749 23.6026 4.26779 23.46 4.19385C23.3174 4.11991 23.1591 4.08131 22.9985 4.08131H5.06188L4.42187 1.19496C4.37283 0.972532 4.24918 0.773516 4.07141 0.630877C3.89364 0.488238 3.67241 0.410537 3.44438 0.410645H0.968446C0.708696 0.419215 0.462453 0.528301 0.28174 0.714855C0.101028 0.901408 0 1.15082 0 1.4104C0 1.66997 0.101028 1.91938 0.28174 2.10594C0.462453 2.29249 0.708696 2.40158 0.968446 2.41015ZM21.5689 6.08299L18.9094 13.4549H7.14027L5.50202 6.08299H21.5689Z" fill="white"/>
<path d="M7.14693 22.4097C6.88717 22.4183 6.64093 22.5274 6.46021 22.7141C6.2795 22.9007 6.17847 23.1503 6.17847 23.41C6.17847 23.6697 6.2795 23.9192 6.46021 24.1059C6.64093 24.2925 6.88717 24.4017 7.14693 24.4103H8.41823C8.55246 24.4147 8.68622 24.3921 8.81153 24.3438C8.93685 24.2955 9.05117 24.2226 9.1477 24.1293C9.24422 24.0359 9.32098 23.9242 9.3734 23.8006C9.42582 23.677 9.45283 23.5442 9.45283 23.41C9.45283 23.2758 9.42582 23.1429 9.3734 23.0194C9.32098 22.8958 9.24422 22.784 9.1477 22.6907C9.05117 22.5974 8.93685 22.5244 8.81153 22.4762C8.68622 22.4279 8.55246 22.4053 8.41823 22.4097H7.14693Z" fill="white"/>
<path d="M16.3833 22.4097C16.1235 22.4183 15.8773 22.5274 15.6965 22.7141C15.5158 22.9007 15.4148 23.1503 15.4148 23.41C15.4148 23.6697 15.5158 23.9192 15.6965 24.1059C15.8773 24.2925 16.1235 24.4017 16.3833 24.4103H17.6546C17.7888 24.4147 17.9225 24.3921 18.0479 24.3438C18.1732 24.2955 18.2875 24.2226 18.384 24.1293C18.4805 24.0359 18.5573 23.9242 18.6097 23.8006C18.6621 23.677 18.6892 23.5442 18.6892 23.41C18.6892 23.2758 18.6621 23.1429 18.6097 23.0194C18.5573 22.8958 18.4805 22.784 18.384 22.6907C18.2875 22.5974 18.1732 22.5244 18.0479 22.4762C17.9225 22.4279 17.7888 22.4053 17.6546 22.4097H16.3833Z" fill="white"/>
</svg>
