<svg width="24" height="25" viewBox="0 0 24 25" fill="none" xmlns="http://www.w3.org/2000/svg">
<path d="M21.6556 17.8713L16.3503 15.6949C16.2114 15.6398 16.0921 15.5444 16.0077 15.4211C15.9233 15.2978 15.8777 15.1521 15.8766 15.0026V13.7622C15.8752 13.6025 15.9282 13.447 16.0269 13.3214C17.4315 11.5007 18.1957 9.26721 18.2008 6.9677C18.2021 3.04559 15.7099 0.410645 12 0.410645C8.2901 0.410645 5.79789 3.04559 5.79789 6.96896C5.80311 9.26845 6.56729 11.5019 7.97179 13.3226C8.07022 13.4479 8.12322 13.6029 8.12211 13.7622V15.0014C8.12106 15.1508 8.07541 15.2965 7.99102 15.4199C7.90663 15.5432 7.78733 15.6385 7.64842 15.6936L2.34316 17.87C1.65074 18.1505 1.05783 18.6313 0.640372 19.2508C0.222919 19.8704 -6.09315e-05 20.6004 1.24894e-08 21.3475V23.4115C0.000334747 23.6766 0.105884 23.9307 0.293463 24.1181C0.481042 24.3054 0.735311 24.4106 1.00042 24.4106H22.9996C23.2649 24.4106 23.5194 24.3052 23.707 24.1176C23.8946 23.93 24 23.6756 24 23.4102V21.3475C23.9997 20.6005 23.7764 19.8706 23.3587 19.2513C22.9411 18.632 22.348 18.1515 21.6556 17.8713ZM22.0004 22.4111H1.99958V21.3475C2.00084 20.9974 2.10659 20.6556 2.30328 20.366C2.49996 20.0764 2.77863 19.8521 3.10358 19.7218L8.40884 17.5454C8.91525 17.3404 9.34893 16.9889 9.65431 16.5359C9.95969 16.0828 10.1229 15.549 10.1229 15.0026V13.7622C10.1237 13.1473 9.91521 12.5504 9.53179 12.0696C8.41635 10.6023 7.80811 8.8121 7.79874 6.96896C7.79874 3.60896 9.96884 2.41149 12.0013 2.41149C14.0337 2.41149 16.2038 3.60896 16.2038 6.96896C16.1944 8.8121 15.5862 10.6023 14.4707 12.0696C14.0874 12.5504 13.8789 13.1473 13.8796 13.7622V15.0014C13.8797 15.5477 14.0428 16.0816 14.3482 16.5346C14.6536 16.9876 15.0873 17.3391 15.5937 17.5441L20.8989 19.7205C21.2239 19.8508 21.5026 20.0751 21.6992 20.3648C21.8959 20.6544 22.0017 20.9961 22.0029 21.3462L22.0004 22.4111Z" fill="white"/>
</svg>
