<svg width="20" height="20" viewBox="0 0 20 20" fill="none" xmlns="http://www.w3.org/2000/svg">
<g clip-path="url(#clip0_9414_2)">
<path fill-rule="evenodd" clip-rule="evenodd" d="M2.22222 20.0007H17.7778C19.0051 20.0007 20 19.0058 20 17.7785V2.22295C20 0.995655 19.0051 0.000732422 17.7778 0.000732422H2.22222C0.994923 0.000732422 0 0.995655 0 2.22295V17.7785C0 19.0058 0.994923 20.0007 2.22222 20.0007Z" fill="white"/>
<path fill-rule="evenodd" clip-rule="evenodd" d="M17.2223 17.223H14.2544V12.168C14.2544 10.7821 13.7278 10.0076 12.6308 10.0076C11.4374 10.0076 10.814 10.8136 10.814 12.168V17.223H7.95376V7.59338H10.814V8.89049C10.814 8.89049 11.674 7.29918 13.7174 7.29918C15.76 7.29918 17.2223 8.54647 17.2223 11.1261V17.223ZM4.54154 6.33246C3.56729 6.33246 2.77783 5.5368 2.77783 4.55551C2.77783 3.57422 3.56729 2.77856 4.54154 2.77856C5.51579 2.77856 6.30478 3.57422 6.30478 4.55551C6.30478 5.5368 5.51579 6.33246 4.54154 6.33246ZM3.06465 17.223H6.04711V7.59338H3.06465V17.223Z" fill="#FBB03B"/>
</g>
<defs>
<clipPath id="clip0_9414_2">
<rect width="20" height="20" fill="white" transform="translate(0 0.000732422)"/>
</clipPath>
</defs>
</svg>
