<svg width="64" height="64" viewBox="0 0 64 64" fill="none" xmlns="http://www.w3.org/2000/svg">
<rect width="64" height="64" rx="8" fill="white"/>
<path d="M25.648 37.306C26.1489 37.306 26.555 36.9046 26.555 36.4095C26.555 35.9143 26.1489 35.5129 25.648 35.5129C25.1471 35.5129 24.741 35.9143 24.741 36.4095C24.741 36.9046 25.1471 37.306 25.648 37.306Z" fill="#FBB03B"/>
<path d="M47.0588 16.9412H26.7211V26.9572H16.9412V47.0588H37.278V37.0428H47.0588V16.9412ZM45.4767 21.2242L37.2798 29.3263V26.9572H34.265L42.7441 18.5762L42.6738 18.5067H45.4767V21.2251V21.2242ZM35.695 36.9924C34.3362 36.7665 32.2268 36.5119 31.4682 39.0383C30.8797 40.527 30.0759 41.9235 29.0819 43.1841C28.5224 43.9033 28.0385 44.677 27.6378 45.4933H25.1302C25.1246 44.2946 25.5243 43.1284 26.2658 42.1798C26.6125 41.7927 27.0146 41.4579 27.4594 41.1859C28.2004 40.7667 28.8311 40.1809 29.3004 39.4759C29.7696 38.7708 30.0643 37.9665 30.1604 37.1279C30.4284 35.6301 30.245 34.0875 29.633 32.692C29.0655 31.3783 28.8695 29.937 29.0661 28.5219H31.3847C31.4498 28.8416 31.506 29.1726 31.5605 29.5218C31.8928 31.4991 32.3059 33.9595 34.9646 35.3113C35.1132 35.3869 35.2099 35.439 35.2714 35.4746C35.3896 35.5962 35.5342 35.6897 35.6942 35.7483V36.9924H35.695ZM22.8292 38.3824C22.7461 37.5847 22.799 36.7789 22.9856 35.9985C23.2103 35.2196 23.5773 34.4879 24.0685 33.8396C25.2128 32.2968 25.8287 30.4331 25.8263 28.5201H27.4752C27.2857 30.1212 27.5167 31.7435 28.1458 33.2306C28.6633 34.3767 28.8213 35.6498 28.5994 36.8855C28.5354 37.5143 28.3159 38.118 27.9601 38.6431C27.6043 39.1682 27.1233 39.5987 26.5594 39.8967C25.9856 40.2518 25.47 40.6913 25.03 41.1998C24.063 42.4253 23.5408 43.9365 23.5473 45.4907H21.8931C22.6571 43.2017 22.9748 40.7902 22.8292 38.3841V38.3824ZM35.695 33.9213H35.6889C33.7376 32.9291 33.4388 31.1499 33.1224 29.2664C33.0811 29.0205 33.0345 28.7712 32.9914 28.5227H35.695V33.9213ZM28.3049 25.5698L35.4533 18.5041H40.5714L32.022 26.9546H28.3049V25.5698ZM33.2147 18.5058L28.3049 23.3588V18.5058H33.2147ZM20.9843 28.5219C20.6124 29.9072 20.118 31.2576 19.5068 32.5573C19.1842 33.3149 18.8476 34.1063 18.525 34.9264V28.5219H20.9843ZM18.5232 40.4648C19.05 37.9476 19.8691 35.4988 20.9641 33.1672C21.6773 31.6835 22.2223 30.1265 22.5892 28.5245H24.2416C24.2432 30.1292 23.719 31.6913 22.7474 32.9769C22.1565 33.7695 21.7166 34.6618 21.4492 35.6102C21.2206 36.5435 21.1511 37.5081 21.2436 38.4641C21.3782 40.8504 21.0371 43.2396 20.2398 45.4959H18.525V40.4648H18.5232ZM29.4159 45.4933C29.6875 45.0589 30.0654 44.522 30.3775 44.0815C31.4751 42.6871 32.3539 41.1372 32.9844 39.484C33.3404 38.2981 33.9811 38.2894 35.5887 38.5622L35.6942 38.5796V45.4933H29.4159ZM37.278 31.5391L45.475 23.437V28.7113L38.6289 35.4781H37.278V31.5391ZM40.8676 35.4781L45.475 30.924V35.4781H40.8676Z" fill="#FBB03B"/>
</svg>
