<svg width="20" height="20" viewBox="0 0 20 20" fill="none" xmlns="http://www.w3.org/2000/svg">
<rect y="0.000732422" width="20" height="20" rx="4" fill="white"/>
<path d="M14.0924 5.04736H5.90762C4.30178 5.04736 3 6.34915 3 7.95498V12.0465C3 13.6523 4.30178 14.9541 5.90762 14.9541H14.0924C15.6982 14.9541 17 13.6523 17 12.0465V7.95498C17 6.34915 15.6982 5.04736 14.0924 5.04736ZM12.126 10.1998L8.2977 12.0257C8.19569 12.0743 8.07786 11.9999 8.07786 11.8869V8.1211C8.07786 8.00649 8.19879 7.93221 8.30101 7.98402L12.1293 9.924C12.2431 9.98167 12.2411 10.1449 12.126 10.1998Z" fill="#FBB03B"/>
</svg>
