<svg width="64" height="64" viewBox="0 0 64 64" fill="none" xmlns="http://www.w3.org/2000/svg">
<rect width="64" height="64" rx="8" fill="white"/>
<path d="M44.474 21.6456L32.2726 17.9248C32.0911 17.8682 31.8979 17.8682 31.7164 17.9248L19.5168 21.6456C19.3159 21.7093 19.1399 21.8394 19.015 22.0164C18.89 22.1934 18.8229 22.408 18.8235 22.6282V33.8011C18.8235 43.5225 31.2339 46.8897 31.7655 47.0279C31.9258 47.0706 32.094 47.069 32.2535 47.0232C33.015 46.823 45.1764 43.4348 45.1764 33.8011V22.6282C45.1764 22.4068 45.108 22.1913 44.9813 22.0141C44.8547 21.8369 44.6767 21.7076 44.474 21.6456ZM43.2245 33.8011C43.2245 41.2742 33.6402 44.4985 32 44.975C30.3643 44.4985 20.7754 41.2894 20.7754 33.8011V23.4011L32 19.972L43.2245 23.3964V33.8011Z" fill="#333333"/>
<path d="M31.0228 26.0727V27.1458C30.2977 27.2728 29.6447 27.6812 29.1935 28.29C28.7423 28.8987 28.5259 29.6632 28.5874 30.4315C28.6489 31.1998 28.9837 31.9158 29.5253 32.4371C30.0669 32.9585 30.7757 33.2471 31.5108 33.2455H32.9748C33.2336 33.2455 33.4818 33.3534 33.6649 33.5453C33.8479 33.7373 33.9507 33.9977 33.9507 34.2691C33.9507 34.5406 33.8479 34.801 33.6649 34.9929C33.4818 35.1849 33.2336 35.2927 32.9748 35.2927H30.0478C29.789 35.2927 29.5407 35.4006 29.3577 35.5926C29.1747 35.7845 29.0718 36.0449 29.0718 36.3164C29.0718 36.5878 29.1747 36.8482 29.3577 37.0402C29.5407 37.2321 29.789 37.34 30.0478 37.34H31.0228V38.3636C31.0228 38.635 31.1257 38.8954 31.3087 39.0874C31.4917 39.2793 31.74 39.3872 31.9988 39.3872C32.2576 39.3872 32.5059 39.2793 32.6889 39.0874C32.8719 38.8954 32.9748 38.635 32.9748 38.3636V37.3333C33.7513 37.3333 34.496 37.0098 35.0451 36.4339C35.5942 35.858 35.9026 35.0769 35.9026 34.2625C35.9026 33.448 35.5942 32.667 35.0451 32.0911C34.496 31.5152 33.7513 31.1917 32.9748 31.1917H31.5117C31.2529 31.1917 31.0047 31.0838 30.8216 30.8918C30.6386 30.6999 30.5358 30.4395 30.5358 30.1681C30.5358 29.8966 30.6386 29.6362 30.8216 29.4443C31.0047 29.2523 31.2529 29.1444 31.5117 29.1444H34.4396C34.6984 29.1444 34.9467 29.0366 35.1297 28.8446C35.3127 28.6527 35.4156 28.3923 35.4156 28.1208C35.4156 27.8494 35.3127 27.589 35.1297 27.397C34.9467 27.2051 34.6984 27.0972 34.4396 27.0972H32.9757V26.0727C32.9757 25.9383 32.9504 25.8052 32.9014 25.681C32.8523 25.5568 32.7804 25.4439 32.6898 25.3489C32.5992 25.2538 32.4916 25.1784 32.3732 25.127C32.2548 25.0755 32.1279 25.0491 31.9997 25.0491C31.8715 25.0491 31.7446 25.0755 31.6262 25.127C31.5078 25.1784 31.4002 25.2538 31.3096 25.3489C31.219 25.4439 31.1471 25.5568 31.098 25.681C31.049 25.8052 31.0238 25.9383 31.0238 26.0727H31.0228Z" fill="#333333"/>
</svg>
