<svg width="32" height="32" viewBox="0 0 32 32" fill="none" xmlns="http://www.w3.org/2000/svg">
<path d="M9.648 21.306C10.1489 21.306 10.555 20.9046 10.555 20.4095C10.555 19.9143 10.1489 19.5129 9.648 19.5129C9.14706 19.5129 8.74097 19.9143 8.74097 20.4095C8.74097 20.9046 9.14706 21.306 9.648 21.306Z" fill="#333333"/>
<path d="M31.0588 0.941162H10.7211V10.9572H0.941162V31.0588H21.278V21.0428H31.0588V0.941162ZM29.4767 5.2242L21.2798 13.3263V10.9572H18.265L26.7441 2.57619L26.6738 2.50669H29.4767V5.22507V5.2242ZM19.695 20.9924C18.3362 20.7665 16.2268 20.5119 15.4682 23.0383C14.8797 24.527 14.0759 25.9235 13.0819 27.1841C12.5224 27.9033 12.0385 28.677 11.6378 29.4933H9.13022C9.12461 28.2946 9.52429 27.1284 10.2658 26.1798C10.6125 25.7927 11.0146 25.4579 11.4594 25.1859C12.2004 24.7667 12.8311 24.1809 13.3004 23.4759C13.7696 22.7708 14.0643 21.9665 14.1604 21.1279C14.4284 19.6301 14.245 18.0875 13.633 16.692C13.0655 15.3783 12.8695 13.937 13.0661 12.5219H15.3847C15.4498 12.8416 15.506 13.1726 15.5605 13.5218C15.8928 15.4991 16.3059 17.9595 18.9646 19.3113C19.1132 19.3869 19.2099 19.439 19.2714 19.4746C19.3896 19.5962 19.5342 19.6897 19.6942 19.7483V20.9924H19.695ZM6.82916 22.3824C6.74607 21.5847 6.79896 20.7789 6.98561 19.9985C7.21025 19.2196 7.57725 18.4879 8.06846 17.8396C9.21282 16.2968 9.82871 14.4331 9.82633 12.5201H11.4752C11.2857 14.1212 11.5167 15.7435 12.1458 17.2306C12.6633 18.3767 12.8213 19.6498 12.5994 20.8855C12.5354 21.5143 12.3159 22.118 11.9601 22.6431C11.6043 23.1682 11.1233 23.5987 10.5594 23.8967C9.98564 24.2518 9.46995 24.6913 9.03002 25.1998C8.06298 26.4253 7.54075 27.9365 7.54725 29.4907H5.89309C6.65714 27.2017 6.97479 24.7902 6.82916 22.3841V22.3824ZM19.695 17.9213H19.6889C17.7376 16.9291 17.4388 15.1499 17.1224 13.2664C17.0811 13.0205 17.0345 12.7712 16.9914 12.5227H19.695V17.9213ZM12.3049 9.56979L19.4533 2.50408H24.5714L16.022 10.9546H12.3049V9.56979ZM17.2147 2.50582L12.3049 7.35877V2.50582H17.2147ZM4.98427 12.5219C4.61244 13.9072 4.11804 15.2576 3.50678 16.5573C3.18421 17.3149 2.84758 18.1063 2.52501 18.9264V12.5219H4.98427ZM2.52325 24.4648C3.05003 21.9476 3.86906 19.4988 4.96406 17.1672C5.67725 15.6835 6.22228 14.1265 6.58921 12.5245H8.24161C8.2432 14.1292 7.71898 15.6913 6.74742 16.9769C6.15651 17.7695 5.7166 18.6618 5.44923 19.6102C5.2206 20.5435 5.15109 21.5081 5.24356 22.4641C5.37818 24.8504 5.03714 27.2396 4.23981 29.4959H2.52501V24.4648H2.52325ZM13.4159 29.4933C13.6875 29.0589 14.0654 28.522 14.3775 28.0815C15.4751 26.6871 16.3539 25.1372 16.9844 23.484C17.3404 22.2981 17.9811 22.2894 19.5887 22.5622L19.6942 22.5796V29.4933H13.4159ZM21.278 15.5391L29.475 7.43695V12.7113L22.6289 19.4781H21.278V15.5391ZM24.8676 19.4781L29.475 14.924V19.4781H24.8676Z" fill="#333333"/>
</svg>
