<svg width="20" height="20" viewBox="0 0 20 20" fill="none" xmlns="http://www.w3.org/2000/svg">
<g clip-path="url(#clip0_9414_16)">
<rect y="0.000732422" width="20" height="20" rx="4" fill="white"/>
<path fill-rule="evenodd" clip-rule="evenodd" d="M10 6.00073C7.79065 6.00073 6 7.79187 6 10.0007C6 12.2096 7.79114 14.0007 10 14.0007C12.2089 14.0007 14 12.2096 14 10.0007C14 7.79187 12.2093 6.00073 10 6.00073ZM10 12.5971C8.56573 12.5971 7.4036 11.4345 7.4036 10.0007C7.4036 8.56646 8.56621 7.40434 10 7.40434C11.4343 7.40434 12.5964 8.56694 12.5964 10.0007C12.5964 11.435 11.4343 12.5971 10 12.5971Z" fill="#FBB03B"/>
<path d="M14.7 6.00073C14.7 6.55302 14.2522 7.00073 13.7 7.00073C13.1477 7.00073 12.7 6.55302 12.7 6.00073C12.7 5.44845 13.1477 5.00073 13.7 5.00073C14.2522 5.00073 14.7 5.44845 14.7 6.00073Z" fill="#FBB03B"/>
<path fill-rule="evenodd" clip-rule="evenodd" d="M10 3.00073C8.09906 3.00073 7.86062 3.00861 7.11381 3.04273C5.97631 3.09479 4.97706 3.37348 4.17469 4.17542C3.37275 4.97736 3.09406 5.97661 3.042 7.11454C3.00787 7.86136 3 8.09979 3 10.0007C3 11.9017 3.00787 12.1401 3.042 12.8869C3.09406 14.0244 3.37275 15.0237 4.17469 15.826C4.97663 16.628 5.97587 16.9067 7.11381 16.9587C7.86062 16.9929 8.09906 17.0007 10 17.0007C11.9009 17.0007 12.1394 16.9929 12.8862 16.9587C14.0237 16.9067 15.0229 16.628 15.8253 15.826C16.6272 15.0241 16.9059 14.0249 16.958 12.8869C16.9921 12.1401 17 11.9017 17 10.0007C17 8.09979 16.9921 7.86136 16.958 7.11454C16.9059 5.97704 16.6272 4.9778 15.8253 4.17542C15.0234 3.37348 14.0241 3.09479 12.8862 3.04273C12.1394 3.00861 11.9009 3.00073 10 3.00073ZM10 4.26205C11.869 4.26205 12.0904 4.26904 12.8284 4.30273C13.6251 4.33904 14.3645 4.49873 14.9333 5.06748C15.502 5.63623 15.6617 6.37561 15.698 7.17229C15.7317 7.91036 15.7387 8.13173 15.7387 10.0007C15.7387 11.8697 15.7317 12.0911 15.698 12.8292C15.6617 13.6259 15.502 14.3652 14.9333 14.934C14.3645 15.5027 13.6251 15.6624 12.8284 15.6987C12.0904 15.7324 11.869 15.7394 10 15.7394C8.131 15.7394 7.90963 15.7324 7.17156 15.6987C6.37487 15.6624 5.6355 15.5027 5.06675 14.934C4.498 14.3652 4.33831 13.6259 4.302 12.8292C4.26831 12.0911 4.26131 11.8697 4.26131 10.0007C4.26131 8.13173 4.26831 7.91036 4.302 7.17229C4.33831 6.37561 4.498 5.63623 5.06675 5.06748C5.6355 4.49873 6.37487 4.33904 7.17156 4.30273C7.90963 4.26904 8.131 4.26205 10 4.26205Z" fill="#FBB03B"/>
</g>
<defs>
<clipPath id="clip0_9414_16">
<rect width="20" height="20" fill="white" transform="translate(0 0.000732422)"/>
</clipPath>
</defs>
</svg>
