<svg width="33" height="35" viewBox="0 0 33 35" fill="none" xmlns="http://www.w3.org/2000/svg">
<path d="M2.7934 31.9019C2.63425 31.9009 2.48034 31.8417 2.35787 31.7342C2.2354 31.6267 2.15194 31.4778 2.12169 31.3126C2.09143 31.1474 2.11625 30.9763 2.19193 30.8282C2.2676 30.6802 2.38945 30.5645 2.53675 30.5008C2.68404 30.437 2.84768 30.4292 2.99981 30.4787C3.15195 30.5281 3.28318 30.6317 3.37118 30.7719C3.45917 30.9121 3.4985 31.0802 3.48246 31.2476C3.46643 31.415 3.39602 31.5713 3.28322 31.69C3.21884 31.7577 3.14242 31.8113 3.05835 31.8477C2.97429 31.8841 2.88424 31.9025 2.7934 31.9019Z" fill="#FBB03B"/>
<path d="M6.42746 34.9413H0.0588379V33.1981H4.77945V24.2651H0.0588379V22.5229H6.42746V34.9413Z" fill="#FBB03B"/>
<path d="M16.2067 33.1628H7.51782V24.3206L7.6133 24.1278C8.14875 23.135 8.95277 22.3343 9.92205 21.8284C10.8316 21.3663 11.8233 21.1129 12.8321 21.0849C13.8409 21.0569 14.8439 21.2549 15.7751 21.6659C16.3747 21.925 16.96 22.2199 17.5281 22.5491C17.995 22.8075 18.4362 23.0538 18.8926 23.2557C19.0848 23.3301 19.2816 23.3905 19.4817 23.4363C19.8967 23.4789 20.2963 23.6248 20.6478 23.862C20.9993 24.0992 21.2927 24.421 21.504 24.801C21.7265 25.4024 21.8116 26.0509 21.7522 26.6936L25.9038 26.631L28.0569 24.1076C28.4564 23.638 29.0159 23.3555 29.6125 23.322C30.209 23.2886 30.7937 23.5071 31.2379 23.9294C31.682 24.3517 31.9493 24.9433 31.9809 25.5739C32.0125 26.2046 31.8059 26.8226 31.4064 27.2922L28.16 31.1188L16.2067 33.1628ZM9.17157 31.4196H16.0749L27.3226 29.5017L30.1785 26.1263C30.2842 26.0003 30.3385 25.8352 30.3295 25.667C30.3205 25.4988 30.249 25.3412 30.1305 25.2286C30.012 25.116 29.8561 25.0575 29.697 25.0659C29.5378 25.0743 29.3883 25.1489 29.281 25.2734L26.6466 28.3571L16.4415 28.5206L16.4177 26.7784L20.1099 26.7209C20.1603 26.3115 20.1241 25.8954 20.004 25.5026C19.9409 25.3511 19.3919 25.2078 19.0969 25.1311C18.8122 25.0651 18.5329 24.9757 18.2614 24.8636C17.742 24.6314 17.2493 24.3589 16.7729 24.0945C16.2594 23.7962 15.7306 23.5286 15.1888 23.293C14.4753 22.9714 13.7056 22.8129 12.9301 22.8277C12.1546 22.8424 11.3908 23.0303 10.6888 23.3788C10.0786 23.6988 9.55699 24.18 9.17443 24.7758L9.17157 31.4196Z" fill="#FBB03B"/>
<path d="M33.0002 4.00782V2.1546L27.7487 0.117676L17.6066 5.6299H8.85376V18.6024H28.9479V14.9283C29.221 14.9384 29.4912 14.9495 29.7547 14.9697C29.9199 14.9798 30.0842 14.9868 30.2493 14.9868C31.1874 14.9793 32.1175 14.8039 33.0002 14.468V12.6057L32.9773 12.6158C32.0004 13.0785 30.9336 13.2899 29.8645 13.2325C29.5647 13.2113 29.2621 13.1982 28.9489 13.1871C28.4218 13.173 27.8785 13.177 27.3018 13.1972C26.5084 13.2255 25.6576 13.2911 24.7295 13.392L23.7146 13.5031C23.4613 13.54 23.2046 13.4691 23.0008 13.3059C22.797 13.1427 22.6629 12.9007 22.628 12.633C22.593 12.3653 22.6601 12.0939 22.8145 11.8784C22.9688 11.663 23.1978 11.5212 23.451 11.4843L27.2923 10.7777C27.2938 10.7784 27.2954 10.7787 27.297 10.7787C27.2987 10.7787 27.3003 10.7784 27.3018 10.7777C27.6389 10.7163 27.9599 10.5802 28.2436 10.3782C28.5273 10.1762 28.7674 9.91297 28.9479 9.60584C29.1812 9.2131 29.3109 8.7615 29.3234 8.29792C29.3358 7.83433 29.2307 7.37566 29.0189 6.96953C28.8071 6.5634 28.4963 6.22461 28.1188 5.98833C27.7413 5.75205 27.3108 5.62689 26.8721 5.62586H21.2063L27.8613 2.01531L33.0002 4.00782ZM26.8731 7.37108C27.0248 7.36943 27.1737 7.41431 27.3018 7.50028C27.418 7.57753 27.5138 7.68467 27.5801 7.81169C27.6465 7.9387 27.6813 8.08142 27.6813 8.22652C27.6813 8.37162 27.6465 8.51435 27.5801 8.64136C27.5138 8.76837 27.418 8.87552 27.3018 8.95277C27.2144 9.01053 27.117 9.04963 27.0154 9.06784L23.1741 9.77441C22.529 9.89085 21.9489 10.2593 21.5487 10.8067C21.1485 11.354 20.9574 12.0404 21.0134 12.7297C21.0694 13.419 21.3683 14.0609 21.851 14.5281C22.3336 14.9953 22.9647 15.2538 23.6191 15.2523C23.7071 15.2527 23.7951 15.248 23.8826 15.2382C23.8826 15.2382 26.5637 14.9737 27.3056 14.9455V16.8633H10.5008V7.37511L26.8731 7.37108Z" fill="#FBB03B"/>
<path d="M19.8323 11.2451H18.1853V12.9864H19.8323V11.2451Z" fill="#FBB03B"/>
</svg>
